<svg width="175" height="49" viewBox="0 0 175 49" fill="none" xmlns="http://www.w3.org/2000/svg">
<rect y="0.975952" width="175" height="48" rx="8" fill="#E8FAF5"/>
<path d="M55.5 32.976H37.5V17.976" stroke="#1AB98F" stroke-width="1.5" stroke-linecap="round" stroke-linejoin="round"/>
<path d="M55.5 19.976L47.5 26.976L43.5 22.976L37.5 27.976" stroke="#1AB98F" stroke-width="1.5" stroke-linecap="round" stroke-linejoin="round"/>
<path d="M74.625 19.1322H67.9688V20.5385H72.8906C72.8281 21.2728 72.7109 21.976 72.5156 22.6322L67.25 22.9603L67.4688 24.4447L71.9609 24.0385C71.0938 25.7338 69.5859 27.1478 67.1562 28.3353L68.0781 29.6791C73.3281 27.1088 74.6094 23.39 74.625 19.1322ZM77.0156 31.8666H78.7656V17.7416H77.0156V31.8666ZM92.8687 17.7572H91.1031V27.3041H88.1031V28.6166H91.1031V31.851H92.8687V17.7572ZM80.8844 25.0072L81.1031 26.4291C82.15 26.4291 83.3219 26.4291 84.5562 26.3822V31.4291H86.3062V26.2963C87.6109 26.2103 88.9469 26.0697 90.2437 25.851L90.1344 24.5697C87.0719 24.9916 83.5406 24.9994 80.8844 25.0072ZM81.9 21.226C81.9 22.9447 83.4 24.0619 85.525 24.0697C87.6031 24.0619 89.1187 22.9447 89.1187 21.226C89.1187 19.5463 87.6031 18.3666 85.525 18.3666C83.4 18.3666 81.9 19.5463 81.9 21.226ZM83.5406 21.226C83.5328 20.3041 84.3375 19.6947 85.525 19.6947C86.6578 19.6947 87.4625 20.3041 87.4625 21.226C87.4625 22.1713 86.65 22.7416 85.525 22.7416C84.3375 22.7416 83.5328 22.1713 83.5406 21.226ZM106.394 24.3666H98.2062V20.3822H106.284V18.976H96.4875V25.7572H106.394V24.3666ZM94.925 30.0697H107.831V28.6322H94.925V30.0697ZM124.319 24.1635H116.147V20.1791H124.209V18.7885H114.412V25.5385H118.412V28.7728H112.85V30.1947H125.756V28.7728H120.131V25.5385H124.319V24.1635ZM139.672 23.851H126.859V25.1322H132.391V26.1635H128.344V27.4135H136.391V28.2885H128.359V31.7416H138.484V30.4447H130.062V29.476H138.094V26.1635H134.109V25.1322H139.672V23.851ZM127.422 22.0853L127.906 23.3822C130.469 23.226 132.359 22.5385 133.25 21.3978C134.141 22.5385 136.039 23.226 138.578 23.3822L139.094 22.0853C136.273 21.9447 134.633 21.1947 134.289 20.1947H138.438V18.8978H134.109V17.7103H132.391V18.8978H128.094V20.1947H132.211C131.852 21.1947 130.211 21.9447 127.422 22.0853Z" fill="#1AB98F"/>
</svg>
