<svg width="175" height="49" viewBox="0 0 175 49" fill="none" xmlns="http://www.w3.org/2000/svg">
<path d="M43.5 33.976H49.5" stroke="#A1A1A1" stroke-width="1.5" stroke-linecap="round" stroke-linejoin="round"/>
<path d="M46.5 15.976C43.1863 15.976 40.5 18.6622 40.5 21.976C40.5 23.3683 40.9743 24.6499 41.77 25.6679C42.6494 26.7929 43.5 28.0526 43.5 29.4804V29.9761C43.5 30.5284 43.9477 30.9761 44.5 30.9761H48.5C49.0523 30.9761 49.5 30.5284 49.5 29.9761V29.4804C49.5 28.0526 50.3506 26.7929 51.23 25.6679C52.0257 24.6499 52.5 23.3683 52.5 21.976C52.5 18.6622 49.8137 15.976 46.5 15.976Z" stroke="#A1A1A1" stroke-width="1.5" stroke-linecap="round" stroke-linejoin="round"/>
<path d="M78.4531 25.1478H70.3125V23.3197H78V21.9603H70.3125V20.2572H78.3281V18.851H68.5469V26.5228H78.4531V25.1478ZM66.9688 30.1478H79.875V28.726H66.9688V30.1478ZM86.5406 18.8353H81.525V20.1947H84.8531V21.8978H81.5406V26.3197H82.4937C84.5797 26.3119 86.0094 26.2728 87.6812 25.9447L87.5094 24.5697C86.0797 24.8431 84.8687 24.9213 83.2437 24.9291V23.1635H86.5406V18.8353ZM83.5719 31.5853H93.4156V30.1791H85.3062V27.3041H83.5719V31.5853ZM87.0719 22.851H88.525V28.0072H90.1656V18.0072H88.525V21.4135H87.0719V22.851ZM91.3687 28.3666H93.025V17.7572H91.3687V28.3666ZM106.394 24.3666H98.2062V20.3822H106.284V18.976H96.4875V25.7572H106.394V24.3666ZM94.925 30.0697H107.831V28.6322H94.925V30.0697ZM125.741 25.0541H112.834V26.4447H118.569V28.8822H120.287V26.4447H125.741V25.0541ZM114.397 31.5853H124.319V30.1791H116.116V27.6947H114.397V31.5853ZM114.522 23.9447H124.053V18.1947H122.334V19.7885H116.241V18.1947H114.522V23.9447ZM116.241 22.5697V21.0853H122.334V22.5697H116.241ZM131.953 19.976V18.476H130.203V19.8666C130.203 21.8822 129.062 23.7338 126.766 24.4916L127.703 25.8822C129.328 25.2885 130.477 24.1322 131.102 22.6478C131.703 24.0072 132.789 25.0775 134.328 25.6166L135.266 24.226C133.086 23.5228 131.953 21.7885 131.953 19.976ZM129.031 28.1947H136.922V31.8666H138.656V26.8197H129.031V28.1947ZM134.109 21.9135H136.922V26.1322H138.656V17.7416H136.922V20.4916H134.109V21.9135Z" fill="#A1A1A1"/>
</svg>
