<svg width="25" height="33" viewBox="0 0 25 33" fill="none" xmlns="http://www.w3.org/2000/svg">
<path d="M6.6173 11.8491L6.6173 32.7539L3.41387 30.9044L3.41387 13.1353L-1.11106e-07 13.0718L-5.29625e-08 10.4326L4.23227 10.4721L6.6173 11.8491Z" fill="#FE2C62"/>
<path d="M14.3077 8.41941L8.53223 11.7539L8.53223 32.9759L14.1908 29.7089C20.6912 25.9559 24.3389 19.2869 24.3389 12.6179C24.3389 8.58572 22.4397 5.46422 17.6396 6.91559L17.6396 9.73825C19.8372 9.63637 21.042 11.3697 21.042 14.4674C21.042 20.0834 18.4933 24.7409 14.1207 27.2654L11.7357 28.6424L11.7357 12.3884L14.3545 10.8764C15.2561 10.3559 16.0759 10.0195 16.808 9.85456L16.5578 7.29931C15.8614 7.58366 15.1122 7.95496 14.3077 8.41941Z" fill="#008077"/>
<path d="M17.0002 4.12793L22.7688 6.32429L19.5187 7.85172L17.537 12.7274L17.0002 4.12793Z" fill="#008077"/>
</svg>
