<svg width="120" height="33" viewBox="0 0 120 33" fill="none" xmlns="http://www.w3.org/2000/svg">
<path d="M6.6173 11.8492L6.6173 32.754L3.41387 30.9045L3.41387 13.1354L-1.11106e-07 13.072L-5.29625e-08 10.4327L4.23227 10.4722L6.6173 11.8492Z" fill="#FE2C62"/>
<path d="M14.3077 8.41941L8.53223 11.7539L8.53223 32.9759L14.1908 29.7089C20.6912 25.9559 24.3389 19.2869 24.3389 12.6179C24.3389 8.58572 22.4397 5.46422 17.6396 6.91559L17.6396 9.73825C19.8372 9.63637 21.042 11.3697 21.042 14.4674C21.042 20.0834 18.4933 24.7409 14.1207 27.2654L11.7357 28.6424L11.7357 12.3884L14.3545 10.8764C15.2561 10.3559 16.0759 10.0195 16.808 9.85456L16.5578 7.29931C15.8614 7.58366 15.1122 7.95496 14.3077 8.41941Z" fill="#008077"/>
<path d="M17.0002 4.12793L22.7688 6.32429L19.5187 7.85172L17.537 12.7274L17.0002 4.12793Z" fill="#008077"/>
<path d="M37.2109 9.02791V6.74791H40.5709V9.02791H45.0589V11.1879H42.7069C43.7629 12.4599 44.4349 14.2599 44.4589 16.3479C44.4349 20.4039 42.1549 23.4279 38.8909 23.4279C35.5309 23.4519 33.2989 20.4039 33.2989 16.3479C33.2989 14.2599 33.9709 12.4599 35.0269 11.1879H32.8189V9.02791H37.2109ZM38.8909 11.2359C37.5709 11.2359 36.5149 13.2519 36.5389 16.3479C36.5149 19.2999 37.5469 21.2679 38.8669 21.2679C40.2109 21.2679 41.2189 19.3479 41.2189 16.3479C41.2189 13.1079 40.2589 11.2359 38.8909 11.2359ZM50.4589 15.5079V28.4679H47.2189V6.74791H50.4589V13.3479H53.5789V15.5079H50.4589ZM59.4442 20.0679H64.8922C66.3562 20.0679 67.4602 20.1399 68.8282 19.4199V6.74791H72.0682V13.3479H75.1882V15.5079H72.0682V28.4679H68.8282V21.5799C67.7002 22.0839 66.1882 22.2279 64.8202 22.2279H57.6442C56.2282 22.2279 55.1482 20.8599 55.1482 19.2519V7.70791H58.3882V19.1799C58.3882 19.7319 58.7482 20.0679 59.4442 20.0679ZM76.6376 23.1879H96.0776V25.3479H76.6376V23.1879ZM79.0616 7.94791H93.7016V10.1079H82.3016V16.0599C82.3016 16.6119 82.6616 16.9479 83.3816 16.9479H93.7016V19.1079H81.5816C80.1416 19.1079 79.0616 17.7399 79.0616 16.1319V7.94791ZM104.607 22.7079V25.6839C104.607 26.3079 104.991 26.5479 105.543 26.5479H112.287V22.7079H104.607ZM100.911 18.6279C99.543 18.6279 98.367 17.2599 98.367 15.6999V11.8839H105.567V9.62791H98.367V7.46791H108.807V12.0279C108.807 13.0839 108.063 14.0439 107.223 14.0439H101.607V15.6279C101.607 16.1319 101.967 16.4679 102.591 16.4679H107.847C109.575 16.4679 110.991 16.4679 112.287 15.7479V6.74791H115.527V19.3479H112.287V17.8359C111.111 18.4599 109.479 18.6279 107.895 18.6279H100.911ZM115.527 20.5479V28.7079H103.575C102.375 28.7079 101.367 27.3639 101.367 25.7319V20.5479H115.527Z" fill="#008077"/>
</svg>
